<svg width="16" height="19" viewBox="0 0 16 19" fill="none" xmlns="http://www.w3.org/2000/svg">
<path fill-rule="evenodd" clip-rule="evenodd" d="M6 0H4V3H6V0ZM5.28571 0.555556L5 0.277778L4.71429 0.555556V1.25H5.28571V0.555556Z" fill="#FFA800"/>
<path fill-rule="evenodd" clip-rule="evenodd" d="M6 0H4V3H6V0ZM5.28571 0.555556L5 0.277778L4.71429 0.555556V1.25H5.28571V0.555556Z" fill="#FFA800"/>
<path fill-rule="evenodd" clip-rule="evenodd" d="M13 0H11V3H13V0ZM12.2857 0.555556L12 0.277778L11.7143 0.555556V1.25H12.2857V0.555556Z" fill="#FFA800"/>
<path fill-rule="evenodd" clip-rule="evenodd" d="M16 2H0V19H16V2ZM1.14286 17.8194V3.18056H14.8571V17.8194H1.14286Z" fill="#FFA800"/>
<rect y="2" width="16" height="5" fill="#FFA800"/>
<path fill-rule="evenodd" clip-rule="evenodd" d="M5 9H3V11H5V9ZM4.28571 10.4444V9.55556L4 9.27778L3.71429 9.55556V10.4444L4 10.7222L4.28571 10.4444Z" fill="#FFA800"/>
<path fill-rule="evenodd" clip-rule="evenodd" d="M9 9H7V11H9V9ZM8.28571 10.4444V9.55556L8 9.27778L7.71429 9.55556V10.4444L8 10.7222L8.28571 10.4444Z" fill="#FFA800"/>
<path fill-rule="evenodd" clip-rule="evenodd" d="M14 9H12V11H14V9ZM13.2857 10.4444V9.55556L13 9.27778L12.7143 9.55556V10.4444L13 10.7222L13.2857 10.4444Z" fill="#FFA800"/>
</svg>
