<svg width="18" height="21" viewBox="0 0 18 21" fill="none" xmlns="http://www.w3.org/2000/svg">
<path fill-rule="evenodd" clip-rule="evenodd" d="M9.74784 4.99999C9.74291 4.84167 9.72953 4.68568 9.70813 4.53229C10.0129 3.15188 11.3387 2.08013 12.9814 1.88318C13.8966 1.77344 14.9146 1.91111 15.5904 2.233C16.1741 2.51097 16.337 2.7912 16.1924 3.16575C16.0061 3.64833 14.3572 4.52583 12.5656 4.99999H9.74784ZM5.08929 0.393843C6.69465 0.586326 8.10811 1.41347 8.94605 2.61159C9.78399 1.41347 11.1974 0.586326 12.8028 0.393843C13.9868 0.251876 15.2889 0.427982 16.2354 0.878739C17.4573 1.46069 18.0591 2.49563 17.5918 3.70601C17.4192 4.15291 16.9867 4.59415 16.3828 4.99999H17C17.5523 4.99999 18 5.4477 18 5.99999V9.62647C18 10.1788 17.5523 10.6265 17 10.6265H16.5455V19.0553C16.5455 19.6076 16.0977 20.0553 15.5455 20.0553H2.45455C1.90226 20.0553 1.45455 19.6076 1.45455 19.0553V10.6265H1C0.447715 10.6265 0 10.1788 0 9.62647V5.99999C0 5.4477 0.447715 4.99999 1 4.99999H1.50929C0.905371 4.59415 0.472877 4.15291 0.300335 3.70601C-0.166967 2.49563 0.434759 1.46069 1.6567 0.878739C2.60317 0.427982 3.90524 0.251876 5.08929 0.393843ZM4.91071 1.88318C6.55337 2.08013 7.8792 3.15188 8.18396 4.53229C8.16256 4.68568 8.14918 4.84167 8.14425 4.99999H5.32647C3.53493 4.52583 1.88598 3.64833 1.69967 3.16575C1.55506 2.7912 1.71799 2.51097 2.30166 2.233C2.97754 1.91111 3.99547 1.77344 4.91071 1.88318ZM3.45455 18.0553V10.6265H14.5455V18.0553H3.45455ZM2.45455 8.62647H15.5455H16V6.99999H2V8.62647H2.45455ZM10.4545 13.5276H7.54545C6.99317 13.5276 6.54545 13.0799 6.54545 12.5276C6.54545 11.9754 6.99317 11.5276 7.54545 11.5276H10.4545C11.0068 11.5276 11.4545 11.9754 11.4545 12.5276C11.4545 13.0799 11.0068 13.5276 10.4545 13.5276Z" fill="#606060"/>
</svg>
