<svg width="16" height="18" viewBox="0 0 16 18" fill="none" xmlns="http://www.w3.org/2000/svg">
<path d="M16 16.7896V15.0352C16 12.5456 13.9858 10.5264 11.5 10.5264H4.5C2.01416 10.5264 0 12.5456 0 15.0352V16.7896C0 17.3418 0.447715 17.7896 1 17.7896C1.55228 17.7896 2 17.3418 2 16.7896V15.0352C2 13.649 3.11985 12.5264 4.5 12.5264H11.5C12.8801 12.5264 14 13.649 14 15.0352V16.7896C14 17.3418 14.4477 17.7896 15 17.7896C15.5523 17.7896 16 17.3418 16 16.7896Z" fill="url(#paint0_linear)"/>
<path fill-rule="evenodd" clip-rule="evenodd" d="M12.5 4.50879C12.5 6.99837 10.4858 9.01759 8 9.01759C5.51416 9.01759 3.5 6.99837 3.5 4.50879C3.5 2.01922 5.51416 0 8 0C10.4858 0 12.5 2.01922 12.5 4.50879ZM5.5 4.50879C5.5 5.89492 6.61985 7.01759 8 7.01759C9.38015 7.01759 10.5 5.89492 10.5 4.50879C10.5 3.12266 9.38015 2 8 2C6.61985 2 5.5 3.12266 5.5 4.50879Z" fill="url(#paint1_linear)"/>
<defs>
<linearGradient id="paint0_linear" x1="0.483989" y1="0.129617" x2="-3.38926" y2="16.9496" gradientUnits="userSpaceOnUse">
<stop stop-color="#FCCA3F"/>
<stop offset="1" stop-color="#FFA800"/>
</linearGradient>
<linearGradient id="paint1_linear" x1="3.77224" y1="-12.908" x2="-5.11" y2="4.56758" gradientUnits="userSpaceOnUse">
<stop stop-color="#FCCA3F"/>
<stop offset="1" stop-color="#FFA800"/>
</linearGradient>
</defs>
</svg>
