<svg width="19" height="19" viewBox="0 0 19 19" fill="none" xmlns="http://www.w3.org/2000/svg">
<path d="M13.198 9.10681H9.596V4.32744H8.408V10.289H13.198V9.10681ZM16.205 9.69839C16.205 13.6366 12.964 16.859 9.003 16.859C5.041 16.859 1.801 13.6366 1.801 9.69839C1.801 5.76015 5.041 2.53778 9.003 2.53778C12.964 2.53679 16.205 5.76015 16.205 9.69839ZM18.005 9.69839C18.005 4.75695 13.972 0.747131 9.003 0.747131C4.033 0.747131 0 4.75695 0 9.69839C0 14.6388 4.033 18.6487 9.003 18.6487C13.971 18.6487 18.005 14.6388 18.005 9.69839Z" fill="black"/>
</svg>
