<svg xmlns="http://www.w3.org/2000/svg" width="18" height="17" viewBox="0 0 18 17">
    <path fill="#000" fill-rule="evenodd" d="M16.85 10.628c.19.22.285.358.285.411 0 .114-.164.335-.492.664-.328.328-.549.492-.663.492-.06 0-.155-.054-.286-.16a5.065 5.065 0 0 1-.366-.332 16.129 16.129 0 0 1-.387-.402 19.171 19.171 0 0 0-.246-.262l-.965.965 2.21 2.21a.93.93 0 0 1 .281.683c0 .28-.13.552-.391.813-.261.262-.533.392-.814.392a.93.93 0 0 1-.683-.281l-6.74-6.74c-1.179.877-2.4 1.316-3.666 1.316-1.092 0-1.98-.343-2.667-1.03C.573 8.681.23 7.792.23 6.7c0-1.071.318-2.12.955-3.144a7.638 7.638 0 0 1 2.49-2.49C4.7.428 5.749.11 6.82.11 7.91.11 8.8.454 9.487 1.14c.686.686 1.029 1.575 1.029 2.666 0 1.266-.439 2.488-1.316 3.667l3.566 3.565.964-.964-.26-.246a17.345 17.345 0 0 1-.403-.386 4.972 4.972 0 0 1-.331-.367c-.107-.13-.16-.226-.16-.287 0-.113.163-.334.491-.662.328-.328.55-.493.663-.493.087 0 .164.034.231.1l.462.448c.268.258.543.524.824.798.281.275.57.563.87.864.297.302.541.563.732.784zM6.658 5.896c.536 0 .99-.187 1.366-.562a1.86 1.86 0 0 0 .563-1.366 1.86 1.86 0 0 0-.563-1.366 1.86 1.86 0 0 0-1.366-.562 1.86 1.86 0 0 0-1.366.562 1.86 1.86 0 0 0-.563 1.366c0 .281.064.56.191.834a1.971 1.971 0 0 0-.833-.191 1.86 1.86 0 0 0-1.366.562 1.86 1.86 0 0 0-.563 1.367c0 .535.187.99.563 1.365.374.376.83.563 1.366.563.535 0 .99-.187 1.366-.563a1.86 1.86 0 0 0 .562-1.365c0-.282-.064-.56-.19-.834.274.127.552.19.833.19z"/>
</svg>
