<svg width="12" height="16" viewBox="0 0 12 16" fill="none" xmlns="http://www.w3.org/2000/svg">
<path d="M8.04795 5.80713C7.85749 5.80713 7.70312 5.97409 7.70312 6.18009V13.229C7.70312 13.4349 7.85749 13.602 8.04795 13.602C8.23842 13.602 8.39278 13.4349 8.39278 13.229V6.18009C8.39278 5.97409 8.23842 5.80713 8.04795 5.80713Z" fill="black"/>
<path d="M3.97959 5.80713C3.78913 5.80713 3.63477 5.97409 3.63477 6.18009V13.229C3.63477 13.4349 3.78913 13.602 3.97959 13.602C4.17006 13.602 4.32442 13.4349 4.32442 13.229V6.18009C4.32442 5.97409 4.17006 5.80713 3.97959 5.80713Z" fill="black"/>
<path fill-rule="evenodd" clip-rule="evenodd" d="M1.01355 13.9674V4.77839C0.374134 4.59483 -0.0401983 3.9267 0.045335 3.21706C0.131003 2.50756 0.689866 1.97682 1.3515 1.97667H3.11699V1.51047C3.11497 1.11843 3.25829 0.741972 3.51489 0.465019C3.77149 0.188213 4.12009 0.0340753 4.48257 0.0372804H7.54453C7.907 0.0340753 8.2556 0.188213 8.5122 0.465019C8.7688 0.741972 8.91212 1.11843 8.9101 1.51047V1.97667H10.6756C11.3372 1.97682 11.8961 2.50756 11.9818 3.21706C12.0673 3.9267 11.653 4.59483 11.0135 4.77839V13.9674C11.0135 14.5105 10.8294 15.0205 10.5078 15.3865C10.1877 15.7535 9.74213 15.9618 9.27567 15.9627H2.75142C2.2851 15.9618 1.83952 15.7535 1.51934 15.3865C1.19768 15.0205 1.01355 14.5105 1.01355 13.9674ZM2.75142 15.2168H9.27567C9.86524 15.2168 10.3239 14.669 10.3239 13.9674V4.81117H1.7032V13.9674C1.7032 14.669 2.16185 15.2168 2.75142 15.2168ZM3.80665 1.51047C3.80436 1.31627 3.87494 1.12936 4.00237 0.992263C4.12966 0.855171 4.30288 0.77985 4.48257 0.783201H7.54453C7.72421 0.77985 7.89744 0.855171 8.02473 0.992263C8.15215 1.12921 8.22273 1.31627 8.22044 1.51047V1.97667H3.80665V1.51047ZM10.6756 2.7226H1.3515C1.0087 2.7226 0.730815 3.02315 0.730815 3.39392C0.730815 3.7647 1.0087 4.06525 1.3515 4.06525H10.6756C11.0184 4.06525 11.2963 3.7647 11.2963 3.39392C11.2963 3.02315 11.0184 2.7226 10.6756 2.7226Z" fill="black"/>
<path d="M6.01377 5.80713C5.82331 5.80713 5.66895 5.97409 5.66895 6.18009V13.229C5.66895 13.4349 5.82331 13.602 6.01377 13.602C6.20424 13.602 6.3586 13.4349 6.3586 13.229V6.18009C6.3586 5.97409 6.20424 5.80713 6.01377 5.80713Z" fill="black"/>
</svg>
