<svg width="16" height="13" viewBox="0 0 16 13" fill="none" xmlns="http://www.w3.org/2000/svg">
<g clip-path="url(#clip0)">
<path d="M16 3.52108V6.77066H0V3.52108C0 3.14893 0.140085 2.83006 0.419362 2.56448C0.699532 2.29974 1.03591 2.16695 1.42851 2.16695H4.57105V0.812817C4.57105 0.586988 4.65403 0.39499 4.82088 0.236825C4.98773 0.0786597 5.19027 0 5.42851 0H10.5715C10.8097 0 11.0123 0.0786597 11.1791 0.236825C11.346 0.39499 11.429 0.586988 11.429 0.812817V2.16695H14.5706C14.9641 2.16695 15.2996 2.29974 15.5806 2.56448C15.8599 2.83006 16 3.14893 16 3.52108ZM16 7.58347V11.6459C16 12.0189 15.8608 12.3369 15.5806 12.6025C15.3005 12.8681 14.965 13.0008 14.5706 13.0008H1.42851C1.03591 13.0008 0.699532 12.8689 0.419362 12.6025C0.140085 12.3369 0 12.0189 0 11.6459V7.58347H6.00045V8.93845C6.00045 9.08477 6.05666 9.21165 6.16908 9.31906C6.2824 9.42563 6.41624 9.47892 6.57149 9.47892H9.4294C9.58376 9.47892 9.71671 9.42563 9.83092 9.31906C9.94334 9.21165 9.99955 9.08477 9.99955 8.93845V7.58347H16ZM5.71403 2.16695H10.2851V1.08347H5.71403V2.16695ZM9.14298 7.58347V8.66695H6.85702V7.58347H9.14298Z" fill="white"/>
</g>
<defs>
<clipPath id="clip0">
<rect width="16" height="13" fill="white"/>
</clipPath>
</defs>
</svg>
