<svg width="18" height="18" viewBox="0 0 18 18" fill="none" xmlns="http://www.w3.org/2000/svg">
<path fill-rule="evenodd" clip-rule="evenodd" d="M16.2 8.1C16.2 12.5735 12.5735 16.2 8.1 16.2C3.62649 16.2 0 12.5735 0 8.1C0 3.62649 3.62649 0 8.1 0C12.5735 0 16.2 3.62649 16.2 8.1ZM1.8 8.1C1.8 11.5794 4.62061 14.4 8.1 14.4C11.5794 14.4 14.4 11.5794 14.4 8.1C14.4 4.62061 11.5794 1.8 8.1 1.8C4.62061 1.8 1.8 4.62061 1.8 8.1Z" fill="#606060"/>
<path d="M17.7366 16.4636L13.8216 12.5486C13.4701 12.1971 12.9002 12.1971 12.5488 12.5486C12.1973 12.9 12.1973 13.4699 12.5488 13.8214L16.4638 17.7364C16.8152 18.0878 17.3851 18.0878 17.7366 17.7364C18.088 17.3849 18.088 16.815 17.7366 16.4636Z" fill="#606060"/>
</svg>
