<svg width="28" height="26" viewBox="0 0 28 26" fill="none" xmlns="http://www.w3.org/2000/svg">
<g clip-path="url(#clip0)">
<path d="M23.693 16.6419V21.0025C23.693 22.3377 23.2205 23.4768 22.2707 24.425C21.3242 25.3732 20.1816 25.849 18.8465 25.849H4.84648C3.51131 25.849 2.37047 25.3749 1.42228 24.425C0.474094 23.4752 0 22.336 0 21.0025V7.00084C0 5.66567 0.474094 4.52483 1.42228 3.57664C2.37047 2.62846 3.51131 2.15436 4.84648 2.15436H9.13845C9.28419 2.15436 9.40984 2.20797 9.51873 2.31519C9.62427 2.42073 9.67787 2.54804 9.67787 2.69379C9.67787 2.99701 9.53213 3.17626 9.24064 3.23154C8.37454 3.52303 7.62905 3.85976 7.00084 4.24004C6.88692 4.28527 6.79813 4.30872 6.73112 4.30872H4.84648C4.10769 4.30872 3.47278 4.57174 2.94508 5.09944C2.41737 5.62546 2.15436 6.26038 2.15436 7.00084V21.0025C2.15436 21.7413 2.41737 22.3762 2.94508 22.9039C3.47278 23.4316 4.10602 23.693 4.84648 23.693H18.8465C19.5869 23.693 20.2202 23.4316 20.7479 22.9039C21.2756 22.3779 21.5403 21.743 21.5403 21.0025V17.4007C21.5403 17.188 21.6408 17.0238 21.8435 16.9132C22.1584 16.7658 22.46 16.5598 22.7515 16.2901C22.9307 16.1125 23.1284 16.0656 23.3412 16.156C23.574 16.2549 23.693 16.4174 23.693 16.6419ZM27.68 8.2958L21.2186 14.7572C21.0176 14.9716 20.7663 15.0772 20.4614 15.0772C20.3274 15.0772 20.1867 15.0504 20.0409 14.9934C19.6037 14.8024 19.3842 14.4707 19.3842 14V10.7701H16.6921C13.0686 10.7701 10.6127 11.5039 9.32272 12.9748C7.98756 14.511 7.57377 17.1645 8.07802 20.9338C8.1132 21.1918 7.99928 21.3828 7.74129 21.5068C7.65083 21.5302 7.58382 21.5403 7.54027 21.5403C7.36101 21.5403 7.21527 21.4682 7.10303 21.3208C6.99079 21.1633 6.87184 20.9908 6.74955 20.7998C6.62558 20.6105 6.40445 20.2235 6.08448 19.6472C5.76618 19.0693 5.48809 18.5114 5.25188 17.9737C5.01568 17.4342 4.79957 16.796 4.60357 16.0538C4.40756 15.3117 4.30705 14.6282 4.30705 14C4.30705 13.4505 4.32715 12.9396 4.36568 12.4688C4.40421 11.9981 4.48295 11.4938 4.60189 10.9544C4.71916 10.4167 4.87663 9.92414 5.07263 9.47517C5.26864 9.02621 5.53165 8.56886 5.86502 8.10315C6.19505 7.63743 6.58035 7.22365 7.01759 6.85844C7.45483 6.49324 7.98588 6.14814 8.6074 5.82314C9.23059 5.49647 9.92916 5.22508 10.7031 5.00562C11.4771 4.78784 12.3717 4.61697 13.3869 4.493C14.4021 4.36903 15.506 4.30872 16.6938 4.30872H19.3859V1.07718C19.3859 0.606438 19.6054 0.27474 20.0426 0.0837621C20.1867 0.0284791 20.3274 0 20.4614 0C20.7546 0 21.0059 0.107216 21.2186 0.319971L27.68 6.78138C27.8928 6.99414 27.9983 7.2471 27.9983 7.53859C28 7.83008 27.8928 8.08305 27.68 8.2958Z" fill="#F9BB22"/>
</g>
<defs>
<clipPath id="clip0">
<rect width="28" height="25.8473" fill="white"/>
</clipPath>
</defs>
</svg>
