<?xml version="1.0" encoding="utf-8"?>
<!-- Generator: Adobe Illustrator 15.0.0, SVG Export Plug-In . SVG Version: 6.00 Build 0)  -->
<!DOCTYPE svg PUBLIC "-//W3C//DTD SVG 1.1//EN" "http://www.w3.org/Graphics/SVG/1.1/DTD/svg11.dtd">
<svg version="1.1" id="Слой_1" xmlns="http://www.w3.org/2000/svg" xmlns:xlink="http://www.w3.org/1999/xlink" x="0px" y="0px"
	 width="22px" height="22px" viewBox="0 0 22 22" enable-background="new 0 0 22 22" xml:space="preserve">
<path d="M20.627,18.44L3.518,1.335c-0.696-0.696-1.759-0.696-2.456,0c-0.696,0.695-0.696,1.76,0,2.455l17.15,17.146
	c0.695,0.695,1.761,0.696,2.456,0S21.321,19.136,20.627,18.44z"/>
<g>
	<path d="M3.513,20.932l13.684-13.68c0.696-0.696,0.695-1.759-0.001-2.455c-0.696-0.696-1.759-0.697-2.456-0.001L1.057,18.476
		c-0.696,0.696-0.696,1.76,0,2.455C1.752,21.626,2.817,21.627,3.513,20.932z"/>
	<circle cx="19.791" cy="2.202" r="1.744"/>
</g>
</svg>
