<svg xmlns="http://www.w3.org/2000/svg" width="14" height="15" viewBox="0 0 14 15">
    <path fill="#F9C024" fill-rule="evenodd" d="M13.685.413a.827.827 0 0 0-.607-.25.784.784 0 0 0-.25.036L5.399 2.484a.879.879 0 0 0-.437.317.823.823 0 0 0-.17.505v8.634a4.142 4.142 0 0 0-1.714-.349c-.268 0-.555.032-.862.094a5.046 5.046 0 0 0-.924.286c-.31.128-.566.308-.768.54a1.176 1.176 0 0 0-.303.794c0 .298.1.563.303.795.202.232.459.413.768.54.31.128.617.224.924.286.307.063.594.094.862.094s.555-.031.861-.094c.307-.062.615-.158.925-.285.309-.128.565-.309.767-.54.203-.233.304-.498.304-.796v-6.33l6.857-2.116v4.795a4.14 4.14 0 0 0-1.714-.348c-.268 0-.555.031-.862.093a5.098 5.098 0 0 0-.924.286 2.03 2.03 0 0 0-.768.54 1.175 1.175 0 0 0-.303.795c0 .298.1.562.303.795.202.232.459.412.768.54.31.128.618.223.924.286.307.062.594.093.862.093s.555-.031.861-.093c.307-.063.615-.158.925-.286.309-.128.565-.308.767-.54.203-.233.304-.497.304-.795v-10a.828.828 0 0 0-.25-.607z"/>
</svg>
