<svg xmlns="http://www.w3.org/2000/svg" width="14" height="14" viewBox="0 0 14 14">
    <path fill="#F9C024" fill-rule="evenodd" d="M13.863 5.837a.337.337 0 0 1 .072.21v1.982c0 .071-.024.14-.072.205a.272.272 0 0 1-.178.116l-1.652.25a5.75 5.75 0 0 1-.348.813c.208.298.527.708.955 1.232.06.071.09.146.09.223a.299.299 0 0 1-.08.206c-.162.22-.456.541-.885.964-.428.423-.708.634-.84.634a.435.435 0 0 1-.231-.08l-1.232-.965c-.262.137-.533.25-.813.34-.095.809-.181 1.362-.259 1.66-.041.167-.149.25-.321.25H6.087a.336.336 0 0 1-.219-.076.265.265 0 0 1-.103-.192l-.25-1.643a5.499 5.499 0 0 1-.803-.33l-1.26.955a.32.32 0 0 1-.222.08.307.307 0 0 1-.224-.097c-.75-.68-1.24-1.179-1.473-1.5a.35.35 0 0 1 .01-.411c.088-.125.24-.323.454-.594.215-.27.375-.48.483-.63a4.418 4.418 0 0 1-.367-.883L.48 8.315a.281.281 0 0 1-.187-.112.337.337 0 0 1-.071-.21V6.011c0-.072.023-.14.071-.205a.27.27 0 0 1 .17-.116l1.66-.25c.084-.274.2-.548.349-.822-.239-.339-.557-.75-.956-1.232a.336.336 0 0 1-.089-.214c0-.06.027-.128.08-.206.155-.214.448-.534.88-.96.431-.425.713-.638.844-.638.077 0 .154.03.232.09l1.232.955c.262-.137.532-.25.812-.34.095-.809.182-1.362.26-1.66.04-.167.148-.25.32-.25H8.07c.083 0 .156.025.219.076.062.05.096.115.102.192l.25 1.643c.292.095.56.205.804.33l1.268-.956a.29.29 0 0 1 .214-.08c.077 0 .152.03.223.09.768.708 1.26 1.214 1.473 1.517a.288.288 0 0 1 .063.197c0 .071-.024.14-.072.205-.089.125-.24.323-.455.594-.214.27-.375.48-.482.63.155.297.277.589.366.874l1.634.25c.077.012.14.05.187.112zM7.078 9.306c.63 0 1.17-.224 1.616-.67.446-.446.67-.985.67-1.616 0-.63-.224-1.17-.67-1.616a2.202 2.202 0 0 0-1.616-.67c-.631 0-1.17.223-1.616.67-.447.446-.67.985-.67 1.616 0 .63.223 1.17.67 1.616.446.446.985.67 1.616.67z"/>
</svg>
