<svg width="29" height="28" viewBox="0 0 29 28" fill="none" xmlns="http://www.w3.org/2000/svg">
<g filter="url(#filter0_d)">
<path d="M4.254 6.35128V19.546H8.674V6.35128H4.254ZM8.272 0.64527C7.825 0.214759 7.231 0 6.491 0C5.749 0 5.149 0.215753 4.689 0.64527C4.229 1.07678 4 1.61864 4 2.27684C4 2.9241 4.223 3.46596 4.669 3.90145C5.115 4.33693 5.705 4.55367 6.438 4.55367H6.464C7.214 4.55367 7.818 4.33593 8.278 3.90145C8.738 3.46696 8.964 2.92509 8.955 2.27684C8.946 1.61864 8.719 1.07578 8.272 0.64527ZM23.179 7.55632C22.249 6.54814 21.023 6.04406 19.495 6.04406C18.933 6.04406 18.422 6.11266 17.962 6.25086C17.502 6.38807 17.113 6.58096 16.797 6.82952C16.48 7.07808 16.228 7.30875 16.04 7.52152C15.852 7.73528 15.669 7.98385 15.491 8.26721H15.517V6.35128H11.111L11.125 6.99059C11.134 7.41712 11.138 8.73053 11.138 10.9318C11.138 13.1341 11.129 16.0055 11.112 19.547H15.518V12.1836C15.518 11.7312 15.567 11.3723 15.665 11.1048C15.853 10.6524 16.136 10.2726 16.516 9.96638C16.895 9.66015 17.367 9.50704 17.929 9.50704C18.697 9.50704 19.261 9.77151 19.622 10.2995C19.984 10.8274 20.165 11.5582 20.165 12.4898V19.547H24.571V11.9847C24.571 10.039 24.106 8.56349 23.179 7.55632Z" fill="white"/>
</g>
<defs>
<filter id="filter0_d" x="0" y="0" width="28.571" height="27.547" filterUnits="userSpaceOnUse" color-interpolation-filters="sRGB">
<feFlood flood-opacity="0" result="BackgroundImageFix"/>
<feColorMatrix in="SourceAlpha" type="matrix" values="0 0 0 0 0 0 0 0 0 0 0 0 0 0 0 0 0 0 127 0"/>
<feOffset dy="4"/>
<feGaussianBlur stdDeviation="2"/>
<feColorMatrix type="matrix" values="0 0 0 0 0 0 0 0 0 0 0 0 0 0 0 0 0 0 0.25 0"/>
<feBlend mode="normal" in2="BackgroundImageFix" result="effect1_dropShadow"/>
<feBlend mode="normal" in="SourceGraphic" in2="effect1_dropShadow" result="shape"/>
</filter>
</defs>
</svg>
