<?xml version="1.0" encoding="utf-8"?>
<!-- Generator: Adobe Illustrator 15.0.0, SVG Export Plug-In . SVG Version: 6.00 Build 0)  -->
<!DOCTYPE svg PUBLIC "-//W3C//DTD SVG 1.1//EN" "http://www.w3.org/Graphics/SVG/1.1/DTD/svg11.dtd">
<svg version="1.1" id="Слой_1" xmlns="http://www.w3.org/2000/svg" xmlns:xlink="http://www.w3.org/1999/xlink" x="0px" y="0px"
	 width="30px" height="22px" viewBox="0 0 30 22" enable-background="new 0 0 30 22" xml:space="preserve">
<path d="M2.084,3.708h19.521c1.048,0,1.85-0.802,1.85-1.85s-0.802-1.849-1.85-1.849H2.084c-1.048,0-1.85,0.801-1.85,1.849
	S1.036,3.708,2.084,3.708z"/>
<path d="M21,18.302H2.084c-1.048,0-1.85,0.801-1.85,1.849c0,1.049,0.801,1.85,1.85,1.85h18.977c1.049,0,1.85-0.801,1.85-1.85
	C22.911,19.103,22.048,18.302,21,18.302z"/>
<path d="M27.854,9.155H2.084c-1.048,0-1.85,0.801-1.85,1.849s0.801,1.85,1.85,1.85h25.832c1.048,0,1.85-0.802,1.85-1.85
	S28.902,9.155,27.854,9.155z"/>
<circle cx="27.908" cy="1.858" r="1.857"/>
</svg>
