<svg xmlns="http://www.w3.org/2000/svg" width="13" height="13" viewBox="0 0 13 13">
    <path fill="#F9C024" fill-rule="evenodd" d="M11.185.342a3.894 3.894 0 0 0-1.536.964L8.221 2.734l-5.938-1.42c-.095-.029-.184-.005-.268.072L.872 2.529a.274.274 0 0 0-.08.241.298.298 0 0 0 .152.214l4.535 2.491-2.312 2.313-1.732-.473a.188.188 0 0 0-.072-.01.278.278 0 0 0-.205.081l-.857.866a.307.307 0 0 0-.08.223c.012.096.05.164.116.206l2.25 1.687 1.687 2.25a.32.32 0 0 0 .214.116h.018a.278.278 0 0 0 .206-.08l.857-.857a.273.273 0 0 0 .071-.277l-.473-1.732L7.48 7.475l2.49 4.536a.247.247 0 0 0 .188.143.192.192 0 0 0 .063.009.252.252 0 0 0 .17-.054l1.142-.857c.101-.083.137-.181.107-.295l-1.428-6.214 1.437-1.437c.452-.453.774-.965.964-1.536.19-.572.155-1.012-.107-1.322-.31-.261-.75-.297-1.321-.106z"/>
</svg>
