<svg width="17" height="16" viewBox="0 0 17 16" fill="none" xmlns="http://www.w3.org/2000/svg">
<g clip-path="url(#clip0)">
<path d="M16.468 3.516C16.736 3.898 16.796 4.33 16.649 4.812L13.887 13.913C13.76 14.341 13.503 14.701 13.118 14.992C12.733 15.284 12.323 15.429 11.888 15.429H2.61601C2.10001 15.429 1.60301 15.25 1.12501 14.892C0.646012 14.535 0.313012 14.093 0.125012 13.572C-0.0349881 13.123 -0.0419881 12.698 0.105012 12.297C0.105012 12.27 0.115012 12.18 0.135012 12.026C0.155012 11.872 0.168012 11.748 0.175012 11.654C0.182012 11.6 0.171012 11.528 0.145012 11.438C0.119012 11.348 0.108012 11.282 0.115012 11.243C0.129012 11.169 0.155012 11.098 0.195012 11.032C0.236012 10.965 0.291012 10.886 0.361012 10.796C0.431012 10.705 0.487012 10.626 0.527012 10.56C0.681012 10.306 0.832012 9.999 0.979012 9.641C1.12601 9.28 1.22701 8.973 1.28001 8.719C1.30101 8.652 1.30101 8.551 1.28501 8.417C1.26901 8.283 1.26701 8.19 1.28001 8.136C1.30101 8.063 1.35701 7.969 1.45101 7.855C1.54501 7.741 1.60101 7.664 1.62201 7.624C1.76301 7.383 1.90301 7.075 2.04401 6.7C2.18501 6.325 2.26901 6.024 2.29501 5.796C2.30201 5.736 2.29301 5.629 2.27001 5.475C2.24701 5.321 2.24801 5.227 2.27501 5.193C2.30101 5.106 2.37501 5.004 2.49601 4.886C2.61601 4.77 2.69001 4.694 2.71701 4.661C2.84401 4.487 2.98701 4.204 3.14401 3.812C3.30101 3.42 3.39401 3.097 3.42001 2.843C3.42701 2.79 3.41701 2.704 3.39001 2.587C3.36301 2.47 3.35601 2.381 3.37001 2.32C3.38301 2.267 3.41301 2.207 3.46001 2.14C3.50701 2.073 3.56701 1.996 3.64101 1.909C3.71501 1.822 3.77201 1.752 3.81201 1.698C3.86601 1.617 3.92101 1.515 3.97801 1.392C4.03401 1.268 4.08501 1.15 4.12801 1.04C4.17201 0.929 4.22601 0.809 4.28901 0.678C4.35201 0.547 4.41801 0.44 4.48401 0.357C4.55101 0.273 4.64001 0.194 4.75101 0.121C4.86101 0.048 4.98201 0.009 5.11201 0.006C5.24301 0.003 5.40201 0.021 5.59001 0.061L5.58001 0.091C5.83401 0.03 6.00501 0 6.09201 0H13.737C14.232 0 14.614 0.188 14.882 0.562C15.15 0.937 15.21 1.373 15.063 1.868L12.311 10.969C12.07 11.766 11.831 12.28 11.593 12.51C11.355 12.741 10.925 12.858 10.302 12.858H1.57201C1.39001 12.858 1.26301 12.908 1.19001 13.008C1.11601 13.115 1.11301 13.259 1.17901 13.44C1.34001 13.909 1.82301 14.143 2.62601 14.143H11.897C12.091 14.143 12.279 14.091 12.459 13.987C12.64 13.883 12.757 13.745 12.811 13.571L15.825 3.656C15.872 3.509 15.888 3.318 15.875 3.084C16.13 3.185 16.327 3.329 16.468 3.516ZM4.94701 6.107C4.92001 6.194 4.92701 6.27 4.96701 6.333C5.00701 6.396 5.07401 6.428 5.16801 6.428H11.275C11.362 6.428 11.447 6.396 11.531 6.333C11.615 6.27 11.67 6.194 11.697 6.107L11.908 5.464C11.934 5.377 11.928 5.302 11.887 5.238C11.847 5.175 11.78 5.143 11.686 5.143H5.58001C5.49201 5.143 5.40701 5.175 5.32301 5.238C5.23901 5.302 5.18501 5.377 5.15801 5.464L4.94701 6.107ZM5.78001 3.536C5.75401 3.623 5.76001 3.698 5.80101 3.762C5.84101 3.826 5.90701 3.858 6.00201 3.858H12.108C12.195 3.858 12.281 3.826 12.365 3.762C12.448 3.699 12.504 3.623 12.53 3.536L12.741 2.893C12.768 2.806 12.762 2.731 12.721 2.667C12.681 2.604 12.614 2.572 12.52 2.572H6.41301C6.32601 2.572 6.24101 2.604 6.15701 2.667C6.07301 2.731 6.01901 2.806 5.99101 2.893L5.78001 3.536Z" fill="white"/>
</g>
<defs>
<clipPath id="clip0">
<rect width="16.727" height="15.683" fill="white"/>
</clipPath>
</defs>
</svg>
