<svg width="21" height="22" viewBox="0 0 21 22" fill="none" xmlns="http://www.w3.org/2000/svg">
<path d="M18.288 18.681C18.127 18.837 17.935 18.915 17.712 18.915H3.395C3.163 18.915 2.969 18.837 2.812 18.681C2.655 18.525 2.578 18.33 2.578 18.099V9.41999H4.467C4.288 9.98199 4.199 10.567 4.199 11.174C4.199 12.889 4.824 14.351 6.074 15.561C7.324 16.771 8.828 17.375 10.587 17.375C11.748 17.375 12.819 17.099 13.801 16.545C14.783 15.991 15.561 15.239 16.132 14.288C16.703 13.337 16.988 12.299 16.988 11.174C16.988 10.568 16.899 9.98299 16.72 9.41999H18.529V18.099C18.529 18.33 18.449 18.524 18.288 18.681ZM10.587 14.964C9.453 14.964 8.483 14.574 7.674 13.792C6.866 13.012 6.462 12.067 6.462 10.96C6.462 9.85299 6.866 8.90799 7.674 8.12699C8.482 7.34599 9.453 6.95499 10.587 6.95499C11.731 6.95499 12.705 7.34599 13.514 8.12699C14.322 8.90799 14.726 9.85299 14.726 10.96C14.726 12.067 14.322 13.012 13.514 13.792C12.705 14.574 11.73 14.964 10.587 14.964ZM18.262 6.79499C18.082 6.97399 17.864 7.06299 17.606 7.06299H15.275C15.016 7.06299 14.797 6.97399 14.619 6.79499C14.441 6.61599 14.351 6.39799 14.351 6.13899V3.92899C14.351 3.67899 14.44 3.46199 14.619 3.27999C14.798 3.09599 15.016 3.00599 15.275 3.00599H17.606C17.864 3.00599 18.083 3.09699 18.262 3.27999C18.44 3.46299 18.53 3.67899 18.53 3.92899V6.13899C18.529 6.39699 18.439 6.61599 18.262 6.79499ZM20.082 1.49099C19.564 0.972988 18.944 0.713989 18.221 0.713989H2.926C2.203 0.713989 1.582 0.973988 1.065 1.49099C0.547002 2.00899 0.288002 2.62999 0.288002 3.35199V18.647C0.288002 19.371 0.547002 19.991 1.065 20.508C1.583 21.026 2.203 21.285 2.926 21.285H18.22C18.944 21.285 19.564 21.025 20.081 20.508C20.6 19.99 20.858 19.37 20.858 18.647V3.35299C20.859 2.62999 20.601 2.00899 20.082 1.49099Z" fill="white"/>
</svg>
