<svg width="30" height="26" viewBox="0 0 30 26" fill="none" xmlns="http://www.w3.org/2000/svg">
<g filter="url(#filter0_d)">
<path d="M22.618 2.94238C23.556 2.38361 24.189 1.59517 24.52 0.573079C23.663 1.07816 22.748 1.42515 21.774 1.61207C20.918 0.705314 19.864 0.25293 18.614 0.25293C17.417 0.25293 16.397 0.672504 15.553 1.51165C14.709 2.3508 14.287 3.36593 14.287 4.55505C14.287 4.8752 14.322 5.2033 14.394 5.54135C12.626 5.45187 10.967 5.00942 9.418 4.21502C7.869 3.42061 6.554 2.36273 5.474 1.04038C5.081 1.70652 4.885 2.42835 4.885 3.20983C4.885 3.94756 5.059 4.63161 5.407 5.25998C5.755 5.89132 6.223 6.40137 6.813 6.79211C6.116 6.76527 5.464 6.58432 4.857 6.24627V6.29897C4.857 7.33796 5.185 8.25068 5.841 9.03713C6.497 9.8216 7.325 10.3167 8.325 10.5206C7.95 10.618 7.57 10.6657 7.187 10.6657C6.936 10.6657 6.665 10.6448 6.37 10.6001C6.646 11.4621 7.155 12.169 7.896 12.7248C8.637 13.2806 9.477 13.5659 10.415 13.5828C8.843 14.8078 7.053 15.4222 5.044 15.4222C4.66 15.4222 4.312 15.4023 4 15.3675C6.009 16.6551 8.223 17.2974 10.643 17.2974C12.178 17.2974 13.621 17.0568 14.969 16.5726C16.317 16.0893 17.468 15.4401 18.424 14.6288C19.379 13.8155 20.202 12.8809 20.895 11.825C21.588 10.7691 22.102 9.6655 22.442 8.51614C22.781 7.36679 22.951 6.21545 22.951 5.06112C22.951 4.81256 22.947 4.62564 22.938 4.50236C23.786 3.8889 24.509 3.14918 25.107 2.27722C24.279 2.63118 23.449 2.85488 22.618 2.94238Z" fill="white"/>
</g>
<defs>
<filter id="filter0_d" x="0" y="0.25293" width="29.107" height="25.0444" filterUnits="userSpaceOnUse" color-interpolation-filters="sRGB">
<feFlood flood-opacity="0" result="BackgroundImageFix"/>
<feColorMatrix in="SourceAlpha" type="matrix" values="0 0 0 0 0 0 0 0 0 0 0 0 0 0 0 0 0 0 127 0"/>
<feOffset dy="4"/>
<feGaussianBlur stdDeviation="2"/>
<feColorMatrix type="matrix" values="0 0 0 0 0 0 0 0 0 0 0 0 0 0 0 0 0 0 0.25 0"/>
<feBlend mode="normal" in2="BackgroundImageFix" result="effect1_dropShadow"/>
<feBlend mode="normal" in="SourceGraphic" in2="effect1_dropShadow" result="shape"/>
</filter>
</defs>
</svg>
