<svg width="40" height="40" viewBox="0 0 40 40" fill="none" xmlns="http://www.w3.org/2000/svg">
<g clip-path="url(#clip0)">
<path d="M19.9996 40C31.0451 40 39.9993 31.0459 39.9993 20.0004C39.9993 8.95489 31.0451 0.000743866 19.9996 0.000743866C8.95415 0.000743866 0 8.95489 0 20.0004C0 31.0459 8.95415 40 19.9996 40Z" fill="#CB2027"/>
<path d="M21.6143 26.7819C20.1023 26.665 19.467 25.9152 18.2812 25.1954C17.6295 28.6147 16.8331 31.8925 14.474 33.6049C13.745 28.4368 15.5429 24.5551 16.3778 20.4349C14.9546 18.0392 16.5489 13.217 19.5508 14.4052C23.2453 15.8662 16.3521 23.3134 20.9797 24.2435C25.8108 25.2147 27.783 15.8609 24.7869 12.8184C20.4581 8.42579 12.1867 12.7186 13.2038 19.0067C13.4516 20.544 15.0402 21.0107 13.8384 23.1319C11.0679 22.5184 10.2415 20.3333 10.3478 17.4202C10.5192 12.6519 14.6323 9.31315 18.7579 8.85111C23.9755 8.26714 28.8725 10.767 29.5485 15.6748C30.3089 21.2139 27.193 27.2126 21.6143 26.7819Z" fill="#F1F2F2"/>
</g>
<defs>
<clipPath id="clip0">
<rect width="40" height="40" fill="white"/>
</clipPath>
</defs>
</svg>
