<svg width="18" height="21" viewBox="0 0 18 21" fill="none" xmlns="http://www.w3.org/2000/svg">
<path fill-rule="evenodd" clip-rule="evenodd" d="M11.5 2.01036V1C11.5 0.447715 11.9477 0 12.5 0C13.0523 0 13.5 0.447715 13.5 1V2.01036H15C16.6569 2.01036 18 3.35351 18 5.01036V8.53886V17.0933C18 18.7501 16.6569 20.0933 15 20.0933H3C1.34315 20.0933 0 18.7501 0 17.0933V8.53886V5.01036C0 3.35351 1.34315 2.01036 3 2.01036H4.5V1C4.5 0.447715 4.94772 0 5.5 0C6.05228 0 6.5 0.447715 6.5 1V2.01036H11.5ZM2 9.53886V17.0933C2 17.6455 2.44772 18.0933 3 18.0933H15C15.5523 18.0933 16 17.6455 16 17.0933V9.53886H2ZM16 7.53886H2V5.01036C2 4.45808 2.44772 4.01036 3 4.01036H4.5V5.02073C4.5 5.57301 4.94772 6.02073 5.5 6.02073C6.05228 6.02073 6.5 5.57301 6.5 5.02073V4.01036H11.5V5.02073C11.5 5.57301 11.9477 6.02073 12.5 6.02073C13.0523 6.02073 13.5 5.57301 13.5 5.02073V4.01036H15C15.5523 4.01036 16 4.45808 16 5.01036V7.53886Z" fill="#606060"/>
</svg>
