<svg width="16" height="20" viewBox="0 0 16 20" fill="none" xmlns="http://www.w3.org/2000/svg">
<path fill-rule="evenodd" clip-rule="evenodd" d="M2.75 0H9.75C10.0161 0 10.2712 0.106068 10.4589 0.294723L15.7089 5.57192C15.8954 5.75931 16 6.01288 16 6.2772V16.8316C16 18.3542 14.7699 19.5907 13.25 19.5907H2.75C1.23006 19.5907 0 18.3542 0 16.8316V2.75907C0 1.23643 1.23006 0 2.75 0ZM14 6.6899L9.33427 2H2.75C2.33695 2 2 2.33869 2 2.75907V16.8316C2 17.252 2.33695 17.5907 2.75 17.5907H13.25C13.6631 17.5907 14 17.252 14 16.8316V6.6899Z" fill="url(#paint0_linear)"/>
<path d="M10.75 5.2772V1C10.75 0.447715 10.3023 0 9.75 0C9.19772 0 8.75 0.447715 8.75 1V6.2772C8.75 6.82949 9.19772 7.2772 9.75 7.2772H15C15.5523 7.2772 16 6.82949 16 6.2772C16 5.72492 15.5523 5.2772 15 5.2772H10.75Z" fill="url(#paint1_linear)"/>
<path d="M11.5 9.67487H4.5C3.94772 9.67487 3.5 10.1226 3.5 10.6749C3.5 11.2272 3.94772 11.6749 4.5 11.6749H11.5C12.0523 11.6749 12.5 11.2272 12.5 10.6749C12.5 10.1226 12.0523 9.67487 11.5 9.67487Z" fill="url(#paint2_linear)"/>
<path d="M11.5 13.193H4.5C3.94772 13.193 3.5 13.6407 3.5 14.193C3.5 14.7453 3.94772 15.193 4.5 15.193H11.5C12.0523 15.193 12.5 14.7453 12.5 14.193C12.5 13.6407 12.0523 13.193 11.5 13.193Z" fill="url(#paint3_linear)"/>
<path d="M6.25 6.15674H4.5C3.94772 6.15674 3.5 6.60445 3.5 7.15674C3.5 7.70902 3.94772 8.15674 4.5 8.15674H6.25C6.80228 8.15674 7.25 7.70902 7.25 7.15674C7.25 6.60445 6.80228 6.15674 6.25 6.15674Z" fill="url(#paint4_linear)"/>
<defs>
<linearGradient id="paint0_linear" x1="8" y1="-9.63722" x2="-10.9476" y2="6.09148" gradientUnits="userSpaceOnUse">
<stop stop-color="#FCCA3F"/>
<stop offset="1" stop-color="#FFA800"/>
</linearGradient>
<linearGradient id="paint1_linear" x1="12.375" y1="-3.57987" x2="5.21488" y2="3.67053" gradientUnits="userSpaceOnUse">
<stop stop-color="#FCCA3F"/>
<stop offset="1" stop-color="#FFA800"/>
</linearGradient>
<linearGradient id="paint2_linear" x1="8" y1="8.69101" x2="7.17872" y2="12.4474" gradientUnits="userSpaceOnUse">
<stop stop-color="#FCCA3F"/>
<stop offset="1" stop-color="#FFA800"/>
</linearGradient>
<linearGradient id="paint3_linear" x1="8" y1="12.2091" x2="7.17872" y2="15.9655" gradientUnits="userSpaceOnUse">
<stop stop-color="#FCCA3F"/>
<stop offset="1" stop-color="#FFA800"/>
</linearGradient>
<linearGradient id="paint4_linear" x1="5.375" y1="5.17288" x2="3.75559" y2="8.25909" gradientUnits="userSpaceOnUse">
<stop stop-color="#FCCA3F"/>
<stop offset="1" stop-color="#FFA800"/>
</linearGradient>
</defs>
</svg>
