<svg width="80" height="80" viewBox="0 0 80 80" fill="none" xmlns="http://www.w3.org/2000/svg">
<g id="vk">
<path id="XMLID_11_" fill-rule="evenodd" clip-rule="evenodd" d="M39.7154 79.4308C61.6496 79.4308 79.4308 61.6496 79.4308 39.7154C79.4308 17.7812 61.6496 0 39.7154 0C17.7812 0 0 17.7812 0 39.7154C0 61.6496 17.7812 79.4308 39.7154 79.4308Z" fill="#4D76A1"/>
<path id="Path" fill-rule="evenodd" clip-rule="evenodd" d="M38.2158 57.1342H41.333C41.333 57.1342 42.2746 57.0308 42.7553 56.5126C43.1978 56.0368 43.1836 55.1434 43.1836 55.1434C43.1836 55.1434 43.1227 50.9607 45.064 50.3448C46.9776 49.7381 49.435 54.3873 52.0396 56.1749C54.0091 57.5278 55.5058 57.2311 55.5058 57.2311L62.47 57.1342C62.47 57.1342 66.1132 56.9097 64.3857 54.0453C64.2442 53.811 63.3797 51.9264 59.2077 48.0538C54.841 44.0007 55.4258 44.6563 60.6859 37.6453C63.8895 33.3756 65.1702 30.7688 64.7702 29.6524C64.3886 28.589 62.0325 28.8701 62.0325 28.8701L54.1911 28.9189C54.1911 28.9189 53.6098 28.8396 53.1787 29.0973C52.7574 29.3501 52.4863 29.9391 52.4863 29.9391C52.4863 29.9391 51.2452 33.2432 49.59 36.0531C46.0983 41.9823 44.7022 42.2952 44.1316 41.9271C42.8042 41.069 43.1355 38.48 43.1355 36.6407C43.1355 30.8949 44.007 28.4991 41.4385 27.8789C40.5861 27.6729 39.9588 27.537 37.779 27.515C34.9811 27.486 32.613 27.5235 31.2721 28.1805C30.3801 28.6173 29.6919 29.5908 30.1111 29.6467C30.6293 29.7161 31.8031 29.9632 32.4254 30.8106C33.2289 31.9037 33.2006 34.3589 33.2006 34.3589C33.2006 34.3589 33.6622 41.1228 32.1224 41.9632C31.0654 42.5395 29.6155 41.3628 26.5026 35.9837C24.9075 33.2283 23.7033 30.1827 23.7033 30.1827C23.7033 30.1827 23.4711 29.6135 23.0569 29.309C22.5542 28.9402 21.8519 28.8227 21.8519 28.8227L14.4006 28.8715C14.4006 28.8715 13.282 28.9027 12.8714 29.389C12.5061 29.8216 12.8424 30.7165 12.8424 30.7165C12.8424 30.7165 18.676 44.3646 25.2813 51.2425C31.338 57.5483 38.2158 57.1342 38.2158 57.1342Z" fill="white"/>
</g>
</svg>
