<?xml version="1.0" encoding="utf-8"?>
<!-- Generator: Adobe Illustrator 15.0.0, SVG Export Plug-In . SVG Version: 6.00 Build 0)  -->
<!DOCTYPE svg PUBLIC "-//W3C//DTD SVG 1.1//EN" "http://www.w3.org/Graphics/SVG/1.1/DTD/svg11.dtd">
<svg version="1.1" id="Слой_1" xmlns="http://www.w3.org/2000/svg" xmlns:xlink="http://www.w3.org/1999/xlink" x="0px" y="0px"
	 width="20px" height="20px" viewBox="0 0 20 20" enable-background="new 0 0 20 20" xml:space="preserve">
<path d="M16.438,5.438c0.703-0.422,1.179-1.018,1.426-1.788c-0.643,0.382-1.329,0.643-2.059,0.784
	c-0.643-0.684-1.434-1.025-2.371-1.025c-0.896,0-1.662,0.316-2.295,0.949s-0.949,1.398-0.949,2.296c0,0.241,0.027,0.488,0.08,0.743
	c-1.325-0.067-2.569-0.4-3.731-1C5.377,5.798,4.391,4.999,3.58,4.001C3.285,4.503,3.139,5.049,3.139,5.639
	c0,0.556,0.13,1.071,0.392,1.547c0.261,0.476,0.612,0.86,1.055,1.155C4.062,8.32,3.573,8.184,3.118,7.929v0.04
	c0,0.783,0.246,1.472,0.738,2.064s1.113,0.966,1.863,1.12c-0.281,0.073-0.565,0.11-0.854,0.11c-0.188,0-0.392-0.017-0.613-0.051
	c0.208,0.65,0.59,1.184,1.146,1.603s1.186,0.634,1.889,0.647c-1.179,0.924-2.521,1.387-4.028,1.387c-0.288,0-0.549-0.014-0.783-0.04
	c1.507,0.971,3.167,1.456,4.981,1.456c1.152,0,2.233-0.183,3.245-0.547c1.011-0.365,1.875-0.854,2.591-1.467
	c0.717-0.613,1.335-1.317,1.854-2.115c0.52-0.796,0.906-1.628,1.16-2.495c0.255-0.867,0.382-1.736,0.382-2.607
	c0-0.187-0.003-0.328-0.01-0.421c0.636-0.463,1.179-1.021,1.627-1.678C17.683,5.203,17.061,5.371,16.438,5.438L16.438,5.438z"/>
</svg>
