<svg xmlns="http://www.w3.org/2000/svg" width="16" height="13" viewBox="0 0 16 13">
    <path fill="#F9C024" fill-rule="evenodd" d="M4.792 10.591c.316 0 .585.112.808.335.223.223.335.493.335.808 0 .316-.112.585-.335.808a1.1 1.1 0 0 1-.808.335 1.1 1.1 0 0 1-.808-.335 1.101 1.101 0 0 1-.335-.808c0-.315.112-.585.335-.808.223-.223.493-.335.808-.335zm8 0c.316 0 .585.112.808.335.223.223.335.493.335.808 0 .316-.112.585-.335.808a1.1 1.1 0 0 1-.808.335 1.1 1.1 0 0 1-.808-.335 1.101 1.101 0 0 1-.335-.808c0-.315.112-.585.335-.808a1.1 1.1 0 0 1 .808-.335zm2.116-8.973a.55.55 0 0 1 .17.402V6.59c0 .143-.048.27-.143.38a.554.554 0 0 1-.366.192l-9.322 1.09c.006.041.02.105.04.191.021.086.04.165.054.237a.984.984 0 0 1 .022.196c0 .095-.071.286-.214.572h8.214a.55.55 0 0 1 .402.17.55.55 0 0 1 .17.4.55.55 0 0 1-.17.403.549.549 0 0 1-.402.17H4.221a.548.548 0 0 1-.402-.17.548.548 0 0 1-.17-.402c0-.083.033-.2.098-.353a6.64 6.64 0 0 1 .264-.53l.183-.34-1.58-7.348H.791a.548.548 0 0 1-.402-.17.549.549 0 0 1-.17-.402C.22.722.278.588.39.475a.55.55 0 0 1 .402-.17h2.286a.575.575 0 0 1 .433.196.714.714 0 0 1 .116.22c.032.092.055.17.067.236l.049.264c.02.11.034.186.04.228h10.723a.55.55 0 0 1 .402.169z"/>
</svg>
