<svg width="8" height="14" viewBox="0 0 8 14" fill="none" xmlns="http://www.w3.org/2000/svg">
<path d="M7.33872 9.41C7.33872 10.1287 7.06339 10.74 6.51272 11.244C5.96205 11.7387 5.15472 12.014 4.09072 12.07V13.68H3.39072V12.084C2.70939 12.0467 2.06539 11.916 1.45872 11.692C0.861385 11.4587 0.390052 11.1647 0.0447188 10.81L0.450719 10.012C0.777386 10.3293 1.20205 10.5953 1.72472 10.81C2.25672 11.0247 2.81205 11.1507 3.39072 11.188V7.506C2.74672 7.34733 2.21005 7.17933 1.78072 7.002C1.35139 6.81533 0.992052 6.54933 0.702719 6.204C0.422719 5.84933 0.282719 5.38267 0.282719 4.804C0.282719 4.08533 0.544052 3.48333 1.06672 2.998C1.58939 2.50333 2.36405 2.214 3.39072 2.13V0.519999H4.09072V2.116C4.62272 2.13467 5.13605 2.22333 5.63072 2.382C6.13472 2.53133 6.56872 2.732 6.93272 2.984L6.58272 3.81C6.20005 3.56733 5.79405 3.376 5.36472 3.236C4.93539 3.096 4.51072 3.01667 4.09072 2.998V6.708C4.78139 6.876 5.34605 7.04867 5.78472 7.226C6.22339 7.394 6.59205 7.65533 6.89072 8.01C7.18939 8.36467 7.33872 8.83133 7.33872 9.41ZM1.30472 4.776C1.30472 5.26133 1.48205 5.63 1.83672 5.882C2.20072 6.134 2.71872 6.34867 3.39072 6.526V3.026C2.70005 3.082 2.17739 3.27333 1.82272 3.6C1.47739 3.91733 1.30472 4.30933 1.30472 4.776ZM4.09072 11.188C4.82805 11.132 5.38339 10.95 5.75672 10.642C6.13005 10.334 6.31672 9.942 6.31672 9.466C6.31672 8.962 6.12539 8.584 5.74272 8.332C5.36005 8.08 4.80939 7.86533 4.09072 7.688V11.188Z" fill="#2C2C2C"/>
</svg>
