<svg xmlns="http://www.w3.org/2000/svg" width="12" height="15" viewBox="0 0 12 15">
    <path fill="#F9C024" fill-rule="evenodd" d="M6.77 6.414h4.856v7.142c0 .238-.083.441-.25.608a.828.828 0 0 1-.607.25H1.055a.828.828 0 0 1-.607-.25.827.827 0 0 1-.25-.608v-12c0-.238.083-.44.25-.607A.827.827 0 0 1 1.055.7h4.857v4.857c0 .238.083.44.25.608.167.166.37.25.607.25zm2.49 5.634a.279.279 0 0 0 .08-.206v-.571a.279.279 0 0 0-.08-.206.279.279 0 0 0-.205-.08H2.769a.278.278 0 0 0-.205.08.279.279 0 0 0-.08.206v.57c0 .084.026.153.08.207.053.053.122.08.205.08h6.286a.279.279 0 0 0 .205-.08zm0-2.286a.278.278 0 0 0 .08-.206v-.571a.278.278 0 0 0-.08-.205.279.279 0 0 0-.205-.08H2.769a.278.278 0 0 0-.205.08.278.278 0 0 0-.08.205v.571c0 .084.026.152.08.206.053.053.122.08.205.08h6.286a.279.279 0 0 0 .205-.08zm1.76-5.67c.297.298.49.69.58 1.178H7.055V.726c.488.09.88.283 1.179.58l2.785 2.786z"/>
</svg>
