<svg width="18" height="18" viewBox="0 0 18 18" fill="none" xmlns="http://www.w3.org/2000/svg">
<path fill-rule="evenodd" clip-rule="evenodd" d="M14.0556 8.5H13.8201C13.2678 8.5 12.8201 8.05228 12.8201 7.5C12.8201 6.94772 13.2678 6.5 13.8201 6.5H14.0556V1.5C14.0556 0.947715 14.5033 0.5 15.0556 0.5C15.6078 0.5 16.0556 0.947715 16.0556 1.5V6.5H16.5C17.0523 6.5 17.5 6.94772 17.5 7.5C17.5 8.05228 17.0523 8.5 16.5 8.5H16.0556V16.5C16.0556 17.0523 15.6078 17.5 15.0556 17.5C14.5033 17.5 14.0556 17.0523 14.0556 16.5V8.5ZM8.05556 16.5L8.05556 14.5H7.8201C7.26782 14.5 6.8201 14.0523 6.8201 13.5C6.8201 12.9477 7.26782 12.5 7.8201 12.5H8.05556V1.5C8.05556 0.947715 8.50327 0.5 9.05556 0.5C9.60784 0.5 10.0556 0.947715 10.0556 1.5V12.5H10.5C11.0523 12.5 11.5 12.9477 11.5 13.5C11.5 14.0523 11.0523 14.5 10.5 14.5H10.0556V16.5C10.0556 17.0523 9.60784 17.5 9.05556 17.5C8.50327 17.5 8.05556 17.0523 8.05556 16.5ZM2.05556 4.5L2.05556 16.5C2.05556 17.0523 2.50327 17.5 3.05556 17.5C3.60784 17.5 4.05556 17.0523 4.05556 16.5L4.05556 4.5H4.5C5.05228 4.5 5.5 4.05228 5.5 3.5C5.5 2.94772 5.05228 2.5 4.5 2.5H4.05556V1.5C4.05556 0.947715 3.60784 0.5 3.05556 0.5C2.50327 0.5 2.05556 0.947715 2.05556 1.5V2.5H1.8201C1.26782 2.5 0.820103 2.94772 0.820103 3.5C0.820103 4.05228 1.26782 4.5 1.8201 4.5H2.05556Z" fill="#606060"/>
</svg>
