<svg width="16" height="17" viewBox="0 0 16 17" fill="none" xmlns="http://www.w3.org/2000/svg">
<g clip-path="url(#clip0)">
<path d="M15.147 0.281C14.959 0.094 14.731 0 14.464 0C14.357 0 14.263 0.013 14.183 0.04L5.825 2.611C5.625 2.678 5.461 2.797 5.333 2.967C5.206 3.138 5.143 3.327 5.143 3.535V13.247C4.56 12.986 3.917 12.856 3.214 12.856C2.913 12.856 2.59 12.891 2.245 12.961C1.899 13.031 1.553 13.138 1.205 13.281C0.856 13.426 0.568 13.629 0.341 13.889C0.114 14.149 0 14.45 0 14.785C0 15.12 0.113 15.418 0.341 15.68C0.569 15.941 0.857 16.143 1.205 16.287C1.553 16.432 1.899 16.538 2.245 16.608C2.59 16.678 2.913 16.713 3.214 16.713C3.516 16.713 3.838 16.678 4.184 16.608C4.529 16.538 4.875 16.431 5.223 16.287C5.572 16.142 5.86 15.94 6.087 15.68C6.315 15.418 6.429 15.12 6.429 14.785V7.664L14.143 5.283V10.678C13.56 10.416 12.917 10.285 12.214 10.285C11.913 10.285 11.59 10.32 11.245 10.39C10.899 10.46 10.553 10.568 10.205 10.712C9.856 10.856 9.568 11.058 9.341 11.319C9.113 11.581 9 11.879 9 12.214C9 12.549 9.113 12.847 9.341 13.108C9.569 13.37 9.857 13.573 10.205 13.716C10.553 13.86 10.899 13.967 11.245 14.037C11.59 14.107 11.913 14.142 12.214 14.142C12.516 14.142 12.838 14.107 13.184 14.037C13.529 13.967 13.875 13.859 14.223 13.716C14.572 13.572 14.86 13.369 15.087 13.108C15.315 12.847 15.429 12.549 15.429 12.214V0.964C15.429 0.696 15.334 0.469 15.147 0.281Z" fill="white"/>
</g>
<defs>
<clipPath id="clip0">
<rect width="15.429" height="16.714" fill="white"/>
</clipPath>
</defs>
</svg>
