<svg width="18" height="14" viewBox="0 0 18 14" fill="none" xmlns="http://www.w3.org/2000/svg">
<g clip-path="url(#clip0)">
<path d="M17.99 5.16101C17.996 5.52201 18 6.02501 18 6.66701C18 7.31101 17.996 7.81301 17.99 8.17401C17.983 8.53501 17.955 8.99201 17.904 9.54501C17.854 10.098 17.779 10.592 17.678 11.026C17.571 11.515 17.34 11.927 16.985 12.261C16.631 12.596 16.215 12.79 15.74 12.844C14.253 13.011 12.007 13.095 9 13.095C5.993 13.095 3.747 13.011 2.26 12.844C1.784 12.79 1.367 12.596 1.01 12.261C0.652 11.927 0.418 11.515 0.312 11.026C0.218 10.591 0.146 10.097 0.096 9.54501C0.045 8.99301 0.017 8.53601 0.01 8.17401C0.003 7.81201 0 7.31101 0 6.66701C0 6.02401 0.003 5.52201 0.01 5.16101C0.017 4.79901 0.045 4.34201 0.096 3.79001C0.146 3.23701 0.221 2.74401 0.322 2.30801C0.429 1.81901 0.66 1.40801 1.015 1.07301C1.369 0.738014 1.784 0.544014 2.26 0.490014C3.747 0.323014 5.993 0.239014 9 0.239014C12.007 0.239014 14.253 0.322014 15.74 0.490014C16.216 0.544014 16.632 0.738014 16.99 1.07301C17.348 1.40801 17.581 1.82001 17.688 2.30801C17.782 2.74401 17.854 3.23701 17.904 3.79001C17.955 4.34201 17.983 4.79901 17.99 5.16101ZM12.857 6.66701C12.857 6.41901 12.756 6.23901 12.555 6.12501L7.413 2.91101C7.205 2.77701 6.987 2.77101 6.76 2.89101C6.539 3.01101 6.429 3.19901 6.429 3.45301V9.88101C6.429 10.136 6.539 10.323 6.76 10.443C6.867 10.498 6.971 10.524 7.072 10.524C7.206 10.524 7.32 10.49 7.414 10.423L12.557 7.20801C12.757 7.09601 12.857 6.91601 12.857 6.66701Z" fill="white"/>
</g>
<defs>
<clipPath id="clip0">
<rect width="18" height="13.096" fill="white"/>
</clipPath>
</defs>
</svg>
