<svg width="17" height="15" viewBox="0 0 17 15" fill="none" xmlns="http://www.w3.org/2000/svg">
<g clip-path="url(#clip0)">
<path d="M15.8758 2.98463C16.6259 3.90643 17 4.91032 17 5.99726C17 7.08512 16.6259 8.08902 15.8758 9.00988C15.1256 9.93167 14.1068 10.6594 12.8212 11.1931C11.5336 11.7286 10.1276 11.9945 8.60311 11.9945C8.16554 11.9945 7.71304 11.9693 7.24468 11.9199C6.00753 13.0133 4.57073 13.7691 2.93334 14.1889C2.62731 14.2766 2.27091 14.3438 1.86506 14.3951C1.7587 14.4082 1.6626 14.3783 1.57863 14.3093C1.49373 14.2421 1.43962 14.1506 1.41443 14.0378V14.0284C1.39484 14.0032 1.39484 13.9669 1.40976 13.9155C1.42562 13.8661 1.43122 13.8353 1.42842 13.8222C1.42562 13.8092 1.43962 13.7803 1.47134 13.7327C1.50213 13.6851 1.52079 13.658 1.52732 13.6487C1.53385 13.6394 1.55531 13.6123 1.59263 13.5685C1.62995 13.5246 1.65514 13.4976 1.6682 13.4845C1.71112 13.4332 1.80815 13.3259 1.95836 13.1598C2.10857 12.9956 2.21587 12.8753 2.28211 12.8043C2.34835 12.7334 2.44538 12.6094 2.5732 12.4349C2.70195 12.2595 2.80272 12.0999 2.87736 11.9572C2.95293 11.8135 3.0369 11.6288 3.1302 11.403C3.22443 11.1791 3.3056 10.9402 3.37464 10.6902C2.39313 10.1341 1.61969 9.44745 1.05523 8.62922C0.48797 7.81285 0.206207 6.93491 0.206207 5.99726C0.206207 5.18555 0.427326 4.40837 0.871429 3.66851C1.31553 2.92865 1.91171 2.28956 2.66184 1.75215C3.41196 1.21475 4.30483 0.788376 5.34231 0.473026C6.37886 0.157675 7.4658 0 8.60311 0C10.1276 0 11.5336 0.266835 12.8212 0.800505C14.1068 1.33511 15.1256 2.06284 15.8758 2.98463Z" fill="white"/>
</g>
<defs>
<clipPath id="clip0">
<rect width="17" height="14.3979" fill="white"/>
</clipPath>
</defs>
</svg>
