<svg xmlns="http://www.w3.org/2000/svg" width="17" height="12" viewBox="0 0 17 12">
    <path fill="#F9C024" fill-rule="evenodd" d="M16.136 3.462c.044.49.07.897.076 1.219.005.321.009.767.009 1.339 0 .571-.004 1.018-.01 1.34-.005.32-.03.727-.075 1.218a9.87 9.87 0 0 1-.201 1.317c-.095.435-.3.8-.616 1.098-.316.298-.685.47-1.107.518-1.322.149-3.319.223-5.991.223-2.673 0-4.67-.074-5.991-.223a1.901 1.901 0 0 1-1.112-.518 2.076 2.076 0 0 1-.62-1.098 11.055 11.055 0 0 1-.193-1.317C.261 8.087.235 7.68.23 7.359a77.023 77.023 0 0 1-.01-1.34c0-.57.004-1.017.01-1.338.005-.322.03-.728.075-1.22.045-.49.112-.93.201-1.316.095-.434.3-.8.616-1.098.316-.298.685-.47 1.108-.518C3.55.38 5.548.306 8.22.306c2.673 0 4.67.074 5.992.223.422.048.793.22 1.111.518.319.297.526.664.62 1.098.084.387.148.826.193 1.317zm-4.755 3.04c.179-.101.268-.262.268-.482 0-.22-.09-.38-.268-.482L6.81 2.68a.539.539 0 0 0-.58-.018.532.532 0 0 0-.295.5v5.714c0 .226.098.393.295.5a.615.615 0 0 0 .276.072c.12 0 .22-.03.304-.09l4.571-2.857z"/>
</svg>
