<?xml version="1.0" encoding="utf-8"?>
<!-- Generator: Adobe Illustrator 15.0.0, SVG Export Plug-In . SVG Version: 6.00 Build 0)  -->
<!DOCTYPE svg PUBLIC "-//W3C//DTD SVG 1.1//EN" "http://www.w3.org/Graphics/SVG/1.1/DTD/svg11.dtd">
<svg version="1.1" id="Слой_1" xmlns="http://www.w3.org/2000/svg" xmlns:xlink="http://www.w3.org/1999/xlink" x="0px" y="0px"
	 width="20px" height="20px" viewBox="0 0 20 20" enable-background="new 0 0 20 20" xml:space="preserve">
<g>
	<path fill="#0A0A08" d="M10,2.622c2.403,0,2.688,0.009,3.637,0.053c0.878,0.04,1.354,0.187,1.671,0.31
		c0.42,0.164,0.721,0.358,1.035,0.673c0.315,0.315,0.51,0.615,0.673,1.035c0.124,0.317,0.271,0.794,0.311,1.671
		c0.043,0.949,0.052,1.233,0.052,3.637c0,2.404-0.009,2.687-0.052,3.636c-0.04,0.879-0.187,1.355-0.311,1.672
		c-0.163,0.42-0.357,0.721-0.673,1.035c-0.314,0.314-0.615,0.51-1.035,0.672c-0.316,0.125-0.793,0.271-1.671,0.311
		c-0.949,0.043-1.233,0.053-3.637,0.053s-2.688-0.01-3.637-0.053c-0.877-0.039-1.354-0.186-1.671-0.311
		c-0.42-0.162-0.72-0.357-1.035-0.672s-0.51-0.615-0.673-1.035c-0.123-0.316-0.27-0.793-0.31-1.672
		C2.631,12.688,2.622,12.404,2.622,10c0-2.403,0.009-2.688,0.053-3.637c0.04-0.877,0.187-1.354,0.31-1.671
		c0.163-0.42,0.358-0.72,0.673-1.035s0.615-0.51,1.035-0.673c0.317-0.123,0.794-0.27,1.671-0.31C7.312,2.631,7.597,2.622,10,2.622
		 M10,1c-2.444,0-2.751,0.01-3.711,0.054C5.332,1.098,4.677,1.25,4.104,1.473c-0.592,0.23-1.094,0.538-1.594,1.038
		c-0.5,0.5-0.808,1.002-1.038,1.594C1.25,4.678,1.098,5.332,1.054,6.29C1.01,7.25,1,7.556,1,10c0,2.445,0.01,2.751,0.054,3.71
		c0.043,0.959,0.196,1.613,0.418,2.186c0.23,0.592,0.538,1.094,1.038,1.594c0.5,0.5,1.002,0.809,1.594,1.037
		c0.573,0.223,1.227,0.375,2.185,0.42C7.249,18.99,7.556,19,10,19s2.751-0.01,3.711-0.053c0.958-0.045,1.612-0.197,2.185-0.42
		c0.592-0.229,1.094-0.537,1.594-1.037s0.809-1.002,1.038-1.594c0.223-0.572,0.375-1.227,0.419-2.186C18.989,12.752,19,12.445,19,10
		c0-2.444-0.011-2.751-0.054-3.71c-0.044-0.958-0.196-1.612-0.419-2.185c-0.229-0.592-0.538-1.094-1.038-1.594
		c-0.5-0.5-1.002-0.808-1.594-1.038c-0.572-0.223-1.227-0.375-2.185-0.418C12.751,1.011,12.444,1,10,1z M10,5.379
		c-2.552,0-4.622,2.069-4.622,4.622S7.448,14.623,10,14.623c2.553,0,4.622-2.07,4.622-4.623S12.553,5.379,10,5.379z M10,13
		c-1.657,0-3-1.342-3-3c0-1.657,1.343-3,3-3c1.657,0,3,1.343,3,3C13,11.658,11.657,13,10,13z M15.884,5.196
		c0,0.597-0.483,1.08-1.08,1.08c-0.596,0-1.079-0.483-1.079-1.08s0.483-1.08,1.079-1.08C15.4,4.116,15.884,4.6,15.884,5.196z"/>
</g>
</svg>
