<svg width="80" height="80" viewBox="0 0 80 80" fill="none" xmlns="http://www.w3.org/2000/svg">
<g id="instagram">
<path id="Path" d="M39.5346 0C61.3702 0 79.0695 17.6987 79.0695 39.5282C79.0695 61.3602 61.3702 79.0562 39.5346 79.0562C17.699 79.0562 0 61.3599 0 39.5282C0 17.6987 17.6992 0 39.5346 0Z" fill="url(#paint0_linear)"/>
<path id="Shape" fill-rule="evenodd" clip-rule="evenodd" d="M30.4504 16.9802H48.7234C56.1496 16.9802 62.1913 23.0209 62.1913 30.4459V48.7158C62.1913 56.1408 56.1496 62.1815 48.7234 62.1815H30.4504C23.0241 62.1815 16.9824 56.1408 16.9824 48.7158V30.4459C16.9824 23.0209 23.0241 16.9802 30.4504 16.9802ZM48.7234 57.6343C53.6497 57.6343 57.6433 53.6413 57.6433 48.7158V30.4459C57.6433 25.5204 53.6497 21.5275 48.7234 21.5275H30.4504C25.5241 21.5275 21.5304 25.5204 21.5304 30.4459V48.7158C21.5304 53.6413 25.5241 57.6343 30.4504 57.6343H48.7234Z" fill="white"/>
<path id="Shape_2" fill-rule="evenodd" clip-rule="evenodd" d="M27.8945 39.5808C27.8945 33.1346 33.1398 27.8902 39.5872 27.8902C46.0345 27.8902 51.2798 33.1345 51.2798 39.5808C51.2798 46.027 46.0345 51.2715 39.5872 51.2715C33.1398 51.2715 27.8945 46.027 27.8945 39.5808ZM32.4425 39.5809C32.4425 43.5261 35.6413 46.7243 39.5872 46.7243C43.533 46.7243 46.7318 43.526 46.7318 39.5809C46.7318 35.6356 43.5331 32.4375 39.5872 32.4375C35.6414 32.4375 32.4425 35.6356 32.4425 39.5809Z" fill="white"/>
<path id="Oval" fill-rule="evenodd" clip-rule="evenodd" d="M51.3037 30.7793C52.8511 30.7793 54.1055 29.5251 54.1055 27.978C54.1055 26.4308 52.8511 25.1766 51.3037 25.1766C49.7564 25.1766 48.502 26.4308 48.502 27.978C48.502 29.5251 49.7564 30.7793 51.3037 30.7793Z" fill="white"/>
</g>
<defs>
<linearGradient id="paint0_linear" x1="78.6473" y1="78.8261" x2="78.6473" y2="0.614043" gradientUnits="userSpaceOnUse">
<stop stop-color="#E09B3D"/>
<stop offset="0.3" stop-color="#C74C4D"/>
<stop offset="0.6" stop-color="#C21975"/>
<stop offset="1" stop-color="#7024C4"/>
</linearGradient>
</defs>
</svg>
