<?xml version="1.0" encoding="utf-8"?>
<!-- Generator: Adobe Illustrator 15.0.0, SVG Export Plug-In . SVG Version: 6.00 Build 0)  -->
<!DOCTYPE svg PUBLIC "-//W3C//DTD SVG 1.1//EN" "http://www.w3.org/Graphics/SVG/1.1/DTD/svg11.dtd">
<svg version="1.1" id="Слой_1" xmlns="http://www.w3.org/2000/svg" xmlns:xlink="http://www.w3.org/1999/xlink" x="0px" y="0px"
	 width="20px" height="20px" viewBox="0 0 20 20" enable-background="new 0 0 20 20" xml:space="preserve">
<g>
	<g>
		<path d="M1.471,18.158h3.683V7.099H1.471V18.158z M3.335,1.774c-0.618,0-1.119,0.181-1.502,0.541
			C1.45,2.677,1.259,3.133,1.259,3.683c0,0.544,0.186,0.998,0.558,1.362S2.68,5.592,3.29,5.592h0.021
			c0.625,0,1.13-0.183,1.513-0.547s0.571-0.818,0.563-1.362C5.38,3.133,5.19,2.677,4.818,2.315C4.446,1.955,3.952,1.774,3.335,1.774
			z M17.24,8.108c-0.773-0.845-1.797-1.267-3.069-1.267c-0.469,0-0.895,0.058-1.277,0.173S12.187,7.292,11.923,7.5
			c-0.265,0.208-0.475,0.401-0.631,0.58c-0.148,0.17-0.294,0.371-0.436,0.596V7.099H7.185l0.012,0.535
			c0.007,0.357,0.011,1.459,0.011,3.304c0,1.846-0.008,4.252-0.022,7.221h3.672v-6.172c0-0.379,0.041-0.681,0.123-0.903
			c0.156-0.38,0.393-0.698,0.709-0.955c0.315-0.256,0.709-0.385,1.177-0.385c0.64,0,1.11,0.222,1.412,0.664s0.452,1.055,0.452,1.836
			v5.915h3.672v-6.339C18.401,10.189,18.015,8.953,17.24,8.108z"/>
	</g>
</g>
</svg>
