<?xml version="1.0" encoding="utf-8"?>
<!-- Generator: Adobe Illustrator 15.0.0, SVG Export Plug-In . SVG Version: 6.00 Build 0)  -->
<!DOCTYPE svg PUBLIC "-//W3C//DTD SVG 1.1//EN" "http://www.w3.org/Graphics/SVG/1.1/DTD/svg11.dtd">
<svg version="1.1" id="Слой_1" xmlns="http://www.w3.org/2000/svg" xmlns:xlink="http://www.w3.org/1999/xlink" x="0px" y="0px"
	 width="20px" height="20px" viewBox="0 0 20 20" enable-background="new 0 0 20 20" xml:space="preserve">
<path d="M7.976,7.791c-0.281,0-0.56-0.064-0.834-0.191c0.127,0.275,0.191,0.553,0.191,0.834c0,0.535-0.188,0.991-0.562,1.366
	c-0.376,0.375-0.831,0.562-1.366,0.562c-0.536,0-0.991-0.187-1.366-0.562C3.664,9.425,3.476,8.969,3.476,8.434
	c0-0.536,0.188-0.991,0.562-1.366s0.83-0.562,1.366-0.562c0.281,0,0.559,0.063,0.833,0.19c-0.127-0.274-0.19-0.552-0.19-0.834
	c0-0.535,0.188-0.99,0.562-1.366c0.375-0.375,0.83-0.562,1.366-0.562c0.535,0,0.991,0.188,1.366,0.562
	c0.375,0.375,0.562,0.831,0.562,1.366c0,0.536-0.188,0.991-0.562,1.367C8.967,7.603,8.511,7.791,7.976,7.791L7.976,7.791z
	 M18.166,12.521c-0.191-0.221-0.436-0.482-0.732-0.783c-0.299-0.302-0.588-0.589-0.869-0.864c-0.281-0.274-0.557-0.541-0.824-0.798
	s-0.422-0.407-0.461-0.447c-0.068-0.067-0.145-0.1-0.232-0.1c-0.113,0-0.334,0.164-0.662,0.492s-0.492,0.549-0.492,0.663
	c0,0.06,0.053,0.156,0.16,0.286c0.107,0.131,0.217,0.253,0.332,0.366c0.113,0.114,0.248,0.243,0.402,0.387
	c0.152,0.145,0.24,0.226,0.26,0.246l-0.963,0.965l-3.567-3.566c0.877-1.178,1.317-2.4,1.317-3.666c0-1.092-0.344-1.98-1.031-2.667
	c-0.687-0.686-1.575-1.029-2.667-1.029c-1.071,0-2.119,0.318-3.144,0.954S3.137,4.426,2.501,5.45S1.547,7.523,1.547,8.594
	c0,1.092,0.343,1.98,1.029,2.667s1.575,1.029,2.667,1.029c1.266,0,2.487-0.438,3.666-1.315l6.741,6.739
	c0.188,0.188,0.414,0.281,0.684,0.281c0.279,0,0.551-0.13,0.812-0.391c0.262-0.262,0.393-0.533,0.393-0.814
	c0-0.268-0.094-0.495-0.281-0.683l-2.211-2.21l0.965-0.964c0.02,0.02,0.102,0.106,0.246,0.261s0.273,0.288,0.387,0.401
	c0.113,0.114,0.236,0.225,0.367,0.332s0.225,0.161,0.285,0.161c0.115,0,0.336-0.164,0.664-0.493
	c0.328-0.327,0.492-0.548,0.492-0.662C18.453,12.88,18.357,12.742,18.166,12.521z"/>
</svg>
